<?xml version="1.0" standalone="no"?>
<!DOCTYPE svg PUBLIC "-//W3C//DTD SVG 20010904//EN"
 "http://www.w3.org/TR/2001/REC-SVG-20010904/DTD/svg10.dtd">
<svg version="1.0" xmlns="http://www.w3.org/2000/svg"
 width="1186.000000pt" height="1186.000000pt" viewBox="0 0 1186.000000 1186.000000"
 preserveAspectRatio="xMidYMid meet">
<metadata>
Created by potrace 1.14, written by Peter Selinger 2001-2017
</metadata>
<g transform="translate(0.000000,1186.000000) scale(0.100000,-0.100000)"
fill="#000000" stroke="none">
<path d="M9802 11850 c-48 -11 -92 -46 -137 -107 -22 -30 -45 -60 -50 -66 -6
-7 -113 -149 -240 -317 -126 -168 -317 -422 -425 -565 -108 -143 -328 -435
-490 -650 -161 -214 -389 -516 -505 -670 -184 -243 -560 -744 -1209 -1605 -97
-129 -182 -242 -189 -250 -46 -58 -67 -91 -63 -98 2 -4 7 -28 10 -52 6 -48 34
-248 41 -290 2 -14 7 -50 10 -80 4 -30 8 -57 10 -60 2 -3 6 -36 10 -75 3 -38
8 -72 10 -75 2 -3 6 -30 9 -60 3 -30 8 -64 10 -75 2 -11 7 -45 11 -75 4 -30 9
-62 10 -70 1 -8 6 -44 11 -80 4 -36 8 -67 9 -70 1 -3 5 -32 9 -65 4 -32 9 -66
11 -75 1 -8 6 -37 9 -65 4 -27 11 -77 16 -110 5 -33 12 -82 15 -110 3 -27 10
-75 15 -105 5 -30 12 -77 15 -105 3 -27 7 -61 10 -75 2 -14 7 -43 9 -65 5 -37
30 -215 42 -295 12 -87 24 -169 29 -209 3 -23 7 -55 9 -70 3 -14 10 -62 16
-106 6 -44 13 -91 15 -105 2 -14 9 -61 15 -105 6 -44 13 -95 16 -114 2 -19 6
-36 8 -38 3 -3 72 84 106 134 8 12 139 185 290 385 151 200 317 419 368 488
52 69 103 136 114 150 15 21 176 234 248 330 115 154 777 1031 791 1050 11 14
100 131 197 260 185 247 217 289 230 305 4 6 18 26 32 45 13 19 27 37 30 40 3
3 66 86 140 185 74 99 140 185 145 191 6 7 19 24 30 39 24 33 452 603 790
1050 786 1042 947 1259 959 1293 17 49 12 101 -13 150 -17 32 -80 85 -323 268
-167 126 -351 265 -409 309 -58 44 -118 89 -134 100 -15 11 -39 29 -54 41
-105 83 -487 366 -509 378 -36 19 -89 25 -130 16z"/>
<path d="M5957 7264 c-1 -1 -24 -5 -52 -8 -48 -6 -173 -23 -225 -31 -14 -2
-61 -9 -106 -15 -44 -6 -89 -12 -100 -14 -10 -2 -48 -7 -84 -12 -36 -4 -67 -8
-70 -9 -3 -1 -32 -5 -65 -9 -32 -4 -66 -9 -75 -11 -16 -3 -85 -12 -160 -21
-25 -3 -56 -7 -70 -9 -14 -2 -54 -9 -90 -14 -36 -6 -86 -12 -112 -15 -26 -3
-76 -10 -110 -15 -35 -6 -83 -13 -108 -16 -25 -3 -61 -8 -80 -11 -19 -2 -48
-6 -65 -8 -85 -11 -396 -55 -435 -62 -14 -2 -50 -6 -80 -10 -30 -3 -57 -7 -60
-9 -3 -2 -34 -6 -70 -10 -36 -3 -72 -8 -80 -10 -8 -2 -40 -7 -70 -10 -30 -4
-95 -13 -145 -20 -49 -8 -117 -17 -150 -21 -33 -3 -67 -8 -76 -9 -9 -2 -40 -6
-69 -10 -29 -4 -61 -8 -71 -10 -9 -2 -39 -6 -66 -10 -26 -4 -59 -8 -73 -10
-14 -2 -79 -11 -145 -20 -66 -9 -131 -18 -145 -20 -22 -4 -279 -39 -370 -51
-19 -2 -48 -6 -65 -9 -16 -3 -48 -7 -70 -10 -22 -3 -56 -8 -75 -11 -19 -3 -53
-7 -75 -9 -22 -3 -51 -7 -65 -10 -14 -2 -43 -7 -65 -9 -90 -11 -133 -17 -185
-26 -30 -5 -77 -12 -105 -15 -64 -8 -80 -10 -253 -35 -79 -11 -165 -23 -190
-26 -26 -3 -58 -7 -72 -9 -31 -5 -100 -15 -137 -20 -208 -27 -329 -48 -351
-59 -59 -31 -102 -104 -102 -173 1 -83 25 -108 323 -333 153 -115 290 -218
305 -230 42 -32 415 -312 446 -335 16 -11 33 -25 40 -30 6 -6 45 -35 86 -65
41 -30 82 -60 90 -67 55 -44 1099 -832 1170 -883 26 -19 209 -157 407 -306
197 -149 405 -306 463 -350 58 -43 110 -82 115 -87 6 -4 57 -43 115 -87 58
-43 116 -87 130 -98 14 -10 171 -129 350 -263 778 -586 1556 -1173 1580 -1192
9 -7 168 -127 355 -267 187 -140 342 -257 345 -260 3 -3 13 -12 23 -20 18 -13
19 -12 13 25 -17 111 -15 92 -42 290 -8 61 -17 122 -19 136 -3 14 -7 43 -10
65 -5 45 -24 177 -30 214 -3 14 -9 59 -15 101 -6 41 -12 84 -14 95 -2 10 -7
45 -11 78 -3 32 -8 68 -10 80 -2 11 -9 57 -15 101 -6 44 -13 91 -15 105 -3 14
-7 50 -11 80 -3 30 -8 57 -9 60 -2 3 -6 37 -10 75 -4 39 -9 72 -10 75 -3 5
-11 57 -31 210 -5 35 -14 98 -20 135 -3 24 -53 375 -60 425 -2 19 -7 53 -11
75 -3 22 -7 49 -9 60 -7 56 -35 257 -38 272 -2 10 -9 61 -16 113 -7 52 -14
102 -15 112 -2 9 -6 38 -10 65 -24 172 -28 198 -31 218 -2 11 -9 58 -14 105
-6 47 -13 92 -15 100 -2 8 -7 40 -10 70 -3 30 -8 62 -10 70 -2 8 -7 38 -10 65
-3 28 -7 57 -10 65 -2 8 -7 42 -10 74 -3 33 -8 62 -9 65 -2 3 -7 35 -10 71 -4
36 -8 72 -11 80 -2 8 -6 35 -9 60 -3 25 -8 55 -10 67 -3 12 -7 48 -11 80 -3
32 -8 65 -10 73 -2 8 -6 38 -10 65 -5 48 -9 75 -20 140 -3 17 -7 55 -11 85 -3
30 -7 57 -9 61 -2 3 -7 37 -10 75 -4 38 -8 71 -10 74 -2 3 -10 59 -19 125 -19
139 -17 127 -51 360 -15 99 -29 196 -31 215 -2 19 -9 67 -15 105 -5 39 -12 88
-15 110 -9 74 -13 84 -35 82 -11 -1 -21 -2 -22 -3z"/>
<path d="M8109 5383 c-73 -98 -136 -180 -139 -183 -3 -3 -120 -158 -260 -345
-140 -187 -257 -342 -260 -345 -3 -3 -79 -104 -170 -225 -90 -121 -168 -224
-172 -230 -5 -5 -22 -28 -38 -50 -40 -53 -43 -58 -58 -76 -11 -14 7 -31 140
-130 84 -63 155 -116 158 -119 3 -3 196 -149 430 -325 234 -175 535 -402 669
-504 l244 -184 -6 59 c-4 32 -9 70 -11 84 -2 14 -7 48 -11 75 -10 73 -16 117
-21 145 -2 14 -6 48 -9 75 -3 28 -8 57 -10 65 -2 8 -7 40 -10 70 -3 30 -8 69
-11 85 -11 66 -14 86 -34 235 -12 85 -23 166 -25 180 -2 14 -8 59 -14 100 -6
41 -13 91 -15 110 -11 73 -35 248 -46 326 -6 44 -13 91 -15 105 -3 13 -7 44
-10 69 -3 25 -7 56 -10 70 -2 14 -9 63 -15 110 -11 82 -13 101 -24 165 -3 17
-8 51 -11 77 -5 48 -22 171 -30 218 -4 27 -21 149 -30 220 -17 127 -35 244
-39 248 -2 1 -63 -77 -137 -175z"/>
<path d="M7104 3168 c6 -33 71 -496 81 -573 3 -22 8 -51 10 -65 3 -14 7 -41 9
-60 7 -56 46 -333 50 -355 2 -11 7 -47 11 -80 4 -32 9 -68 11 -78 2 -11 6 -38
9 -61 7 -57 13 -99 26 -186 6 -41 12 -88 14 -105 2 -16 6 -43 8 -60 5 -27 12
-76 33 -225 15 -115 44 -304 47 -305 4 -2 131 -96 147 -108 9 -7 61 -46 115
-87 55 -41 107 -80 115 -87 140 -113 938 -704 961 -712 93 -32 188 12 231 108
17 36 19 54 12 115 -4 39 -8 73 -9 76 -1 3 -5 34 -10 70 -5 36 -9 67 -10 70
-1 3 -5 34 -10 70 -5 36 -9 67 -10 70 -1 3 -5 37 -10 75 -5 39 -10 72 -10 75
-2 7 -15 98 -21 140 -2 19 -6 49 -9 65 -3 17 -7 48 -10 70 -3 22 -10 67 -15
100 -5 33 -11 78 -14 100 -2 22 -11 87 -20 145 -15 102 -20 140 -31 226 -3 23
-7 50 -9 60 -5 25 -19 125 -21 144 -9 90 -20 144 -34 159 -9 10 -234 182 -501
382 -267 200 -487 366 -490 369 -3 3 -30 23 -60 45 -30 22 -66 50 -80 62 -14
13 -28 23 -32 23 -3 0 -13 6 -20 13 -7 6 -113 88 -236 180 -217 164 -223 168
-218 135z"/>
</g>
</svg>
