<svg xmlns="http://www.w3.org/2000/svg" width="2108" height="2108" preserveAspectRatio="xMidYMid meet" version="1.0" viewBox="0 0 1581 1581"><metadata>Created by potrace 1.14, written by Peter Selinger 2001-2017</metadata><g fill="#000" stroke="none"><path d="M2952 14050 c-120 -28 -236 -143 -261 -260 -4 -14 -6 -2237 -6 -4940 l0 -4915 26 -56 c36 -76 114 -152 186 -180 88 -35 209 -33 285 4 63 31 90 56 330 307 91 96 205 216 252 265 47 50 155 162 240 250 84 88 168 176 186 195 32 34 335 351 435 454 42 44 260 272 440 461 28 28 124 130 215 225 276 288 491 512 673 704 38 39 140 145 227 236 87 91 179 188 205 215 26 28 123 129 215 225 93 96 203 211 245 255 42 44 147 154 233 244 86 91 182 191 212 222 30 32 128 134 216 226 89 92 190 198 225 235 64 66 348 363 424 443 22 23 119 124 215 225 96 100 198 206 225 235 103 108 372 389 425 444 30 32 134 140 230 241 96 100 198 206 225 235 97 101 381 398 435 455 30 31 129 135 220 230 91 95 194 203 230 240 36 37 133 138 215 225 83 86 177 185 210 220 101 105 417 435 470 490 28 29 122 128 210 220 88 93 180 189 205 215 25 26 124 129 220 230 96 101 195 204 220 230 513 535 475 493 507 560 24 48 27 67 27 145 0 75 -4 99 -26 145 -32 72 -100 139 -174 176 l-59 29 -4700 2 c-2585 0 -4715 -3 -4733 -7z" transform="translate(0.000000,1581.000000) scale(0.100000,-0.100000)"/><path d="M7912 7164 c-65 -20 -125 -65 -230 -176 -53 -56 -119 -125 -147 -153 -27 -29 -90 -95 -140 -147 -49 -52 -158 -166 -242 -254 -83 -87 -178 -187 -210 -220 -32 -34 -128 -135 -213 -224 -85 -89 -175 -183 -199 -209 -38 -40 -287 -302 -406 -426 -236 -247 -382 -400 -630 -660 -184 -193 -191 -201 -385 -404 -80 -84 -170 -179 -200 -210 -125 -132 -379 -399 -430 -452 -48 -49 -265 -277 -385 -404 -41 -43 -331 -347 -420 -440 -27 -29 -120 -126 -205 -215 -85 -90 -171 -180 -190 -200 -90 -95 -121 -170 -116 -288 5 -126 86 -245 204 -300 l57 -27 4575 0 c2516 0 4587 3 4602 7 16 4 47 17 70 30 123 68 197 202 185 337 -10 117 -36 159 -216 347 -86 90 -388 407 -451 474 -14 15 -98 103 -188 197 -89 94 -181 190 -204 214 -23 24 -112 118 -198 209 -87 91 -174 183 -195 205 -20 22 -112 119 -203 215 -92 96 -204 213 -248 260 -45 47 -96 101 -114 120 -18 19 -73 78 -124 130 -50 53 -136 143 -191 201 -55 58 -175 183 -266 279 -92 96 -184 193 -204 215 -21 22 -76 81 -124 130 -178 186 -411 432 -452 475 -23 25 -114 121 -203 214 -89 92 -174 182 -190 200 -36 38 -281 296 -576 605 -85 89 -180 189 -210 221 -64 68 -117 104 -181 123 -58 18 -151 18 -207 1z" transform="translate(0.000000,1581.000000) scale(0.100000,-0.100000)"/></g></svg>