<svg width="1092" height="1186" xmlns="http://www.w3.org/2000/svg" xmlns:xlink="http://www.w3.org/1999/xlink" overflow="hidden"><defs><clipPath id="clip0"><rect x="279" y="285" width="1092" height="1186"/></clipPath></defs><g clip-path="url(#clip0)" transform="translate(-279 -285)"><path d="M1228.21 289.313 1362.83 390.76C1371.37 397.194 1373.08 409.331 1366.64 417.87L1046.53 842.672 880.986 717.926 1201.1 293.123C1207.53 284.585 1219.67 282.879 1228.21 289.313Z" fill="#299AD9" fill-rule="evenodd"/><path d="M1046.97 842.147 922.219 1007.69 881.421 717.401Z" fill="#299AD9" fill-rule="evenodd"/><path d="M932.052 1079.72 1056.8 914.171 1097.6 1204.46Z" fill="#1BC4F9" fill-rule="evenodd"/><path d="M1131.8 1448.42 1107.37 1275.66 942 1151 972.818 1368.94 1101.76 1466.14C1115.2 1476.27 1134.16 1465.09 1131.8 1448.42" fill="#AD73FB" fill-rule="evenodd"/><path d="M295.312 818.469 832.145 744 915 1326 286.533 852.297C273.087 842.161 278.635 820.782 295.312 818.469" fill="#90E2FC" fill-rule="evenodd"/></g></svg>